<?xml version="1.0" encoding="utf-8"?>
<!-- Generator: Adobe Illustrator 16.0.0, SVG Export Plug-In . SVG Version: 6.00 Build 0)  -->
<!DOCTYPE svg PUBLIC "-//W3C//DTD SVG 1.1//EN" "http://www.w3.org/Graphics/SVG/1.1/DTD/svg11.dtd">
<svg version="1.1" id="Layer_1" xmlns="http://www.w3.org/2000/svg" xmlns:xlink="http://www.w3.org/1999/xlink" x="0px" y="0px"
	 width="612px" height="792px" viewBox="0 0 612 792" enable-background="new 0 0 612 792" xml:space="preserve">
<g>
	<path fill-rule="evenodd" clip-rule="evenodd" fill="#FFFFFF" d="M393.799,128.349
	c-0.27,2.474-0.435,4.764-0.779,7.027c-1.945,12.813-5.883,25.082-10.323,37.2c-8.045,21.959-18.106,43.024-28.446,63.967
	c-6.793,13.759-12.759,27.87-17.195,42.578c-3.86,12.796-6.814,25.759-6.297,39.271c0.104,2.676,0.447,5.277,1.326,7.816
	c0.589-0.187,0.918-0.195,1.103-0.363c10.511-9.531,22.782-16.354,35.227-22.904c3.927-2.066,8.143-3.66,11.857-6.043
	c17.441-11.194,31.729-25.468,41.339-44.008c5.136-9.909,8.338-20.388,8.061-31.746c-0.208-8.519-1.72-16.811-3.994-24.976
	c-6.633-23.809-17.648-45.628-30.398-66.653C394.982,129.03,394.712,128.539,393.799,128.349z M-271.068-115.441c364.41,0,728.82,0,1093.23,0
		c0,318.788,0,637.575,0,956.362c-364.41,0-728.82,0-1093.23,0C-271.068,522.134-271.068,203.347-271.068-115.441z M195.933,569.839
		c1.066-0.604,1.404-0.841,1.776-0.999c11.539-4.891,17.8-13.91,20.355-25.88c1.365-6.393,1.261-12.83,0.604-19.261
		c-1.769-17.313-12.098-29.441-28.846-34.011c-6.535-1.784-13.203-2.587-19.971-2.591c-12.618-0.006-25.236-0.013-37.854-0.015
		c-8.316-0.001-16.634-0.08-24.949,0.033c-8.305,0.113-14.744,5.687-16.138,13.867c-0.31,1.82-0.288,3.71-0.289,5.567
		c-0.015,44.88-0.011,89.76-0.011,134.64c0,0.86,0.049,1.724-0.009,2.58c-0.109,1.598,0.474,2.472,2.193,2.31
		c0.284-0.026,0.573,0,0.859,0c9.034,0,18.067-0.051,27.1,0.04c2.03,0.021,2.96-0.534,2.716-2.657
		c-0.113-0.991-0.019-2.006-0.019-3.01c0-17.637-0.009-35.272,0.009-52.909c0.003-3.275,0.054-3.333,3.239-3.34
		c11.041-0.022,22.082-0.014,33.122,0.017c1.718,0.005,3.448,0.081,5.15,0.302c9.053,1.172,12.815,4.52,15.036,13.393
		c1.082,4.32,1.687,8.713,1.734,13.179c0.073,7.026,0.199,14.054,0.858,21.054c0.362,3.847,0.796,7.676,2.117,11.368
		c0.685,1.914,1.694,2.644,3.774,2.612c7.885-0.117,15.772-0.047,23.658-0.047c2.8,0,5.6,0,9.096,0
		c-4.813-5.672-5.184-11.873-5.296-18.228c-0.14-7.881-0.459-15.764-0.945-23.631c-0.334-5.426-0.917-10.838-2.238-16.156
		c-1.881-7.577-6.194-13.103-13.237-16.486C198.54,571.104,197.552,570.622,195.933,569.839z M393.799,128.349
		c-0.27,2.474-0.435,4.764-0.779,7.027c-1.945,12.813-5.883,25.082-10.323,37.2c-8.045,21.959-18.106,43.024-28.446,63.967
		c-6.793,13.759-12.759,27.87-17.195,42.578c-3.86,12.796-6.814,25.759-6.297,39.271c0.104,2.676,0.447,5.277,1.326,7.816
		c0.589-0.187,0.918-0.195,1.103-0.363c10.511-9.531,22.782-16.354,35.227-22.904c3.927-2.066,8.143-3.66,11.857-6.043
		c17.441-11.194,31.729-25.468,41.339-44.008c5.136-9.909,8.338-20.388,8.061-31.746c-0.208-8.519-1.72-16.811-3.994-24.976
		c-6.633-23.809-17.648-45.628-30.398-66.653C394.982,129.03,394.712,128.539,393.799,128.349z M210.48,100.77
		c14.746-0.613,29.186-0.005,43.51,2.415c16.342,2.761,32.064,7.438,46.615,15.548c18.856,10.509,32.56,25.55,39.977,46.005
		c4.702,12.971,6.174,26.432,5.918,40.146c-0.017,0.849-0.691,1.917,0.387,2.617c0.839-0.382,0.932-1.135,1.186-1.785
		c10.458-26.75,18.225-54.158,20.121-82.977c0.644-9.774,0.05-19.494-2.329-29.023c-3.646-14.609-11.491-25.821-26.104-31.292
		c-7.697-2.882-15.688-4.441-23.899-4.86c-12.877-0.656-25.428,1.174-37.734,4.904c-24.489,7.42-46.11,20.124-66.052,35.906
		C211.456,98.862,210.577,99.222,210.48,100.77z M357.572,565.795c0.009,0,0.018,0,0.025,0c0,10.039-0.105,20.08,0.033,30.118
		c0.118,8.619,0.862,17.178,3.972,25.35c2.569,6.753,6.479,12.492,12.817,16.199c22.888,13.384,46.237,14.497,70.101,2.576
		c8.597-4.294,14.022-11.125,16.963-20.113c2.384-7.288,3.314-14.812,3.37-22.439c0.081-11.187,0.037-22.374,0.041-33.561
		c0.004-12.621-0.047-25.243,0.046-37.863c0.017-2.2-0.554-3.028-2.856-2.95c-4.728,0.16-9.465,0.023-14.197,0.073
		c-5.65,0.061-9.82,2.75-12.747,7.461c-1.717,2.765-2.168,5.84-2.16,9.065c0.041,17.784,0.02,35.568,0.017,53.353
		c0,3.299,0.104,6.603-0.05,9.895c-0.262,5.604-1.725,10.742-6.296,14.516c-8.132,6.711-20.167,7.234-28.851,1.292
		c-3.603-2.466-5.843-5.802-6.941-9.998c-0.773-2.951-0.84-5.945-0.839-8.961c0.008-24.382,0.009-48.763-0.003-73.145
		c-0.001-3.456-0.037-3.49-3.489-3.498c-8.462-0.021-16.924-0.021-25.386,0c-3.52,0.008-3.559,0.042-3.563,3.478
		C357.562,539.692,357.572,552.744,357.572,565.795z M162.571,235.814c0.501-1.087,0.862-1.859,1.214-2.635
		c8.266-18.203,19.314-34.454,33.715-48.395c12.082-11.695,25.705-21.027,41.375-27.221c20.308-8.027,41.351-10.008,62.92-7.352
		c3.019,0.372,6.033,0.778,9.05,1.168c-0.995-1.554-2.188-2.529-3.428-3.442c-10.521-7.75-21.586-14.638-33.371-20.274
		c-14.92-7.136-30.363-12.655-46.967-14.445c-23.289-2.51-43.702,3.596-60.724,19.98c-14.845,14.289-21.462,31.892-20.397,52.34
		c0.873,16.757,6.183,32.265,14.133,46.932C160.695,233.587,161.135,234.845,162.571,235.814z M262.834,170.307
		c-0.464,0.086-0.908,0.073-1.261,0.246c-23.533,11.525-44.685,26.255-61.794,46.324c-12.424,14.574-21.174,30.964-23.535,50.238
		c-2.538,20.728,3.118,38.581,19.237,52.508c10.734,9.274,23.348,14.864,36.921,18.48c2.132,0.568,4.261,1.441,6.648,1.116
		c0-0.58,0.067-1.008-0.01-1.408c-2.904-15.083-4.214-30.341-4.913-45.658c-1.028-22.535-0.384-44.974,4.265-67.149
		c4.136-19.728,10.994-38.24,24.227-53.884C262.762,170.953,262.749,170.653,262.834,170.307z M328.203,646.232
		c4.014,0,8.028-0.044,12.041,0.021c1.895,0.03,2.877-0.45,2.835-2.651c-0.121-6.449-0.083-12.903-0.016-19.354
		c0.017-1.646-0.502-2.258-2.198-2.266c-3.432-0.017-6.882,0.363-10.295-0.312c-4.219-0.834-5.924-2.646-6.381-6.869
		c-0.107-0.994-0.086-2.005-0.086-3.007c-0.004-20.646-0.007-41.291-0.001-61.937c0.001-3.944,0.017-3.944,4.161-4.151
		c8.025-0.401,14.033-6.146,14.654-14.089c0.146-1.854-0.018-3.733,0.145-5.585c0.192-2.2-0.854-2.63-2.804-2.582
		c-4.585,0.112-9.176-0.033-13.762,0.065c-1.898,0.041-2.575-0.691-2.411-2.508c0.09-0.995,0.02-2.006,0.013-3.009
		c-0.036-5.591,0.146-11.193-0.171-16.769c-0.388-6.822-5.993-13.24-12.56-13.884c-5.824-0.571-11.741-0.21-17.617-0.25
		c-1.017-0.007-1.585,0.488-1.585,1.55c0,0.86-0.015,1.721-0.015,2.581c0,43.441-0.013,86.883,0.028,130.325
		c0.002,2.856,0.217,5.743,0.669,8.562c1.458,9.085,7.411,14.646,16.458,15.365C315.593,645.979,321.883,646.554,328.203,646.232z
		 M242.92,584.565c0,4.301,0,8.601,0,12.9c0,15.051-0.005,30.103,0.009,45.153c0.001,1.628-0.558,3.521,2.309,3.493
		c9.316-0.092,18.634-0.055,27.951-0.017c1.651,0.006,2.374-0.623,2.232-2.287c-0.073-0.854-0.012-1.72-0.012-2.579
		c0-33.112,0-66.224,0-99.336c0-1.003,0.01-2.007-0.007-3.01c-0.173-10.019-8.693-16.144-15.925-15.765
		c-4.289,0.225-8.598,0.049-12.899,0.035c-4.063-0.013-3.659-0.056-3.659,3.788C242.922,546.15,242.92,565.358,242.92,584.565z
		 M342.883,227.907c-0.897-0.267-1.089,0.165-1.348,0.47c-15.132,17.811-30.107,35.74-44.153,54.441
		c-7.38,9.827-10.705,20.803-10.654,32.895c0.072,17.376,3.594,34.184,9.485,50.434c10.891,30.042,24.129,59.114,37.103,88.291
		c0.511,1.149,1.247,2.197,1.703,2.988c-0.24-2.799-1.319-5.733-2.149-8.73c-9.983-36.021-19.65-72.104-25.054-109.187
		c-2.398-16.457-0.899-32.258,6.127-47.443c2.227-4.813,4.488-9.602,7.064-14.237c4.803-8.64,9.683-17.237,14.4-25.923
		c3.012-5.546,5.521-11.325,6.926-17.525C342.831,232.189,343.112,229.999,342.883,227.907z M514.104,517.731
		c0-2.943,0.066-4.936-0.02-6.921c-0.072-1.657,0.602-2.307,2.247-2.271c3.007,0.065,6.017,0.015,9.024,0.015
		c7.209-0.001,7.13,0.004,6.747-7.313c-0.103-1.957-0.901-2.403-2.61-2.396c-8.738,0.037-17.477,0.034-26.214,0.004
		c-1.498-0.005-2.386,0.293-2.416,2.097c-0.146,8.449-0.358,16.898-0.635,25.345c-0.065,2.011,0.915,2.392,2.609,2.357
		c3.149-0.064,6.305-0.085,9.453,0.008c1.757,0.052,2.612-0.479,2.624-2.376c0.01-1.649,1.043-2.771,2.722-2.65
		c1.709,0.124,2.37,1.488,2.378,3.062c0.036,6.445,0.028,12.891,0.018,19.335c-0.003,1.51-0.766,2.494-2.302,2.547
		c-1.516,0.053-2.368-0.906-2.613-2.334c-0.168-0.983-0.215-1.994-0.244-2.993c-0.054-1.861-0.113-3.727-0.061-5.586
		c0.045-1.612-0.567-2.343-2.242-2.312c-3.437,0.063-6.877,0.073-10.313,0c-1.784-0.039-2.168,0.877-2.136,2.404
		c0.067,3.147,0.085,6.275,0.758,9.396c0.998,4.633,3.749,7.567,8.051,9.285c4.121,1.646,8.409,1.683,12.701,1.292
		c8.171-0.742,12.73-5.493,13.032-13.724c0.204-5.579,0.06-11.17,0.068-16.756c0.003-1.879-0.382-3.695-0.871-5.498
		c-1.143-4.204-3.967-6.477-8.183-7.165C521.709,513.934,518.019,514.592,514.104,517.731z M311.771,221.083
		c-0.001-2.751-0.096-5.463-1.016-8.083c-1.793-5.104-5.579-6.468-10.1-3.567c-2.572,1.65-4.557,3.919-6.281,6.409
		c-6.016,8.692-9.168,18.391-9.944,28.877c-0.245,3.309,0.131,6.606,1.47,9.687c1.748,4.021,4.855,5.102,8.74,3.11
		c2.611-1.338,4.609-3.408,6.321-5.726C307.705,242.662,311.13,232.354,311.771,221.083z M492.612,528.019
		c0-8.746,0.011-17.493-0.015-26.239c-0.003-0.938,0.371-2.053-0.729-2.695c-1.387-0.813-7.872-0.121-8.962,1.083
		c-3.477,3.839-7.749,6.325-12.713,7.633c-1.521,0.4-1.987,1.219-2.07,2.737c-0.247,4.576-0.235,4.661,4.386,4.959
		c4.478,0.288,5.26,1.021,5.36,5.397c0.092,4.013,0.067,8.028,0.073,12.043c0.011,7.026,0.054,14.053-0.026,21.077
		c-0.022,2.03,0.683,2.837,2.737,2.755c2.863-0.113,5.734,0.004,8.602-0.035c3.271-0.044,3.332-0.071,3.345-3.336
		C492.636,544.938,492.612,536.478,492.612,528.019z M315.246,347.972c-0.09,0.421-0.268,0.811-0.233,1.182
		c0.103,1.138,0.23,2.281,0.45,3.402c2.266,11.595,7.836,21.472,15.917,29.947c12.329,12.931,27.455,21.422,44.139,27.361
		c0.375,0.134,0.798,0.407,1.208,0.032C373.648,403.846,323.398,353.206,315.246,347.972z M251.264,245.61
		c-0.293,0.137-0.586,0.274-0.878,0.412c0.086,1.417,0.072,2.847,0.274,4.247c0.882,6.093,2.087,12.118,3.671,18.074
		c3.57,13.419,10.072,25.502,16.886,37.454c2.788,4.89,5.823,9.66,7.393,15.25c0.384-0.365,0.668-0.524,0.779-0.764
		c0.236-0.513,0.421-1.058,0.56-1.607c2.082-8.262,1.499-16.478-0.539-24.641c-3.607-14.452-11.082-26.916-20.056-38.577
		C256.766,252.092,253.967,248.888,251.264,245.61z M258.902,512.525c4.575,0,9.152-0.081,13.725,0.034
		c2.249,0.056,3.049-0.764,2.888-3.004c-0.174-2.418,0.05-4.863-0.07-7.288c-0.426-8.61-6.923-15.043-15.451-15.247
		c-4.716-0.112-9.437,0.035-14.153-0.063c-2.055-0.042-3.102,0.353-3.043,2.796c0.163,6.716,0.13,13.439,0.014,20.157
		c-0.037,2.166,0.852,2.683,2.795,2.645C250.037,512.466,254.471,512.526,258.902,512.525z M448.05,681.191
		c-0.528-2.956,0.301-5.805-0.952-8.262c-0.804-1.578-0.857-2.375,0.154-3.99c2.665-4.253,0.305-8.796-4.729-9.348
		c-2.966-0.325-5.993-0.161-8.991-0.112c-1.855,0.029-2.912,1.062-2.919,2.972c-0.02,5.572,0.021,11.146-0.039,16.719
		c-0.018,1.725,0.801,2.19,2.36,2.211c1.628,0.021,2.374-0.591,2.309-2.253c-0.056-1.427,0-2.857,0.024-4.287
		c0.015-0.897,0.191-1.595,1.292-1.869c4.188-1.045,6.144,0.29,6.557,4.595C443.474,681.297,443.474,681.297,448.05,681.191z
		 M228.881,673.962c-2.091-0.158-3.906-1.015-5.09,1.381c-1.138,2.304-3.338,2.463-5.583,2.131c-2.279-0.337-3.4-1.905-4.049-3.951
		c-0.719-2.269-0.689-4.521,0.144-6.741c1.452-3.869,6.017-4.974,9.053-2.196c0.625,0.572,1.093,1.368,1.797,1.788
		c1.005,0.6,2.283,0.824,3.242,0.049c1.037-0.839,0.086-1.887-0.242-2.729c-0.957-2.456-2.9-3.823-5.418-4.433
		c-7.832-1.896-13.369,2.354-13.534,10.434c-0.029,1.427-0.02,2.888,0.245,4.281c0.93,4.891,4.309,7.629,9.373,7.752
		C224.609,681.868,227.281,679.916,228.881,673.962z M153.091,664.896c-0.7-0.908-0.246-2.107-0.415-3.201
		c-0.244-1.585-1.267-2.161-2.688-2.219c-1.695-0.068-1.688,1.166-1.688,2.354c-0.002,5.73,0.028,11.461-0.02,17.19
		c-0.014,1.61,0.558,2.33,2.232,2.363c1.698,0.034,2.278-0.668,2.234-2.297c-0.062-2.289-0.106-4.593,0.083-6.871
		c0.226-2.727,1.533-4.188,3.407-4.228c1.911-0.041,3.163,1.418,3.448,4.132c0.104,0.994,0.064,2.004,0.072,3.006
		c0.011,1.289,0.046,2.581-0.005,3.867c-0.063,1.553,0.427,2.402,2.18,2.392c1.692-0.011,2.286-0.746,2.247-2.347
		c-0.063-2.578,0.095-5.166-0.077-7.733c-0.398-5.951-3.926-8.24-9.716-6.42C153.986,665.011,153.625,665.229,153.091,664.896z
		 M333.839,659.439c-1.857,0-3.721-0.09-5.571,0.021c-2.553,0.152-3.27,0.813-3.317,3.439c-0.099,5.428,0.002,10.859-0.048,16.288
		c-0.016,1.736,0.845,2.183,2.392,2.188c1.626,0.007,2.358-0.638,2.291-2.29c-0.064-1.568,0.091-3.15-0.031-4.713
		c-0.167-2.123,0.825-2.772,2.782-2.673c1.274,0.065,2.583,0.017,3.834-0.21c1.363-0.247,1.788-1.366,1.611-2.612
		c-0.17-1.201-1.227-0.935-2.032-0.971c-0.855-0.038-1.724,0.071-2.569-0.028c-1.482-0.175-3.566,0.881-3.644-2.106
		c-0.073-2.856,1.792-2.345,3.438-2.37c2-0.029,4.001-0.033,6.001-0.015c1.523,0.014,1.928-0.818,1.891-2.189
		c-0.034-1.303-0.703-1.76-1.883-1.757C337.269,659.446,335.554,659.443,333.839,659.439z M113.607,672.844
		c-0.032,3.337,0.786,6.314,4.017,7.923c2.911,1.449,5.843,1.202,8.515-0.696c1.151-0.817,2.776-2.073,2.101-3.354
		c-0.895-1.697-2.711-0.645-4.115-0.027c-0.645,0.283-1.236,0.744-1.905,0.907c-1.351,0.33-2.527-0.012-3.36-1.243
		c-0.836-1.238-0.484-2.241,0.988-2.311c2.426-0.114,4.86-0.092,7.29-0.051c1.455,0.024,2.01-0.57,1.98-2.035
		c-0.094-4.671-3.205-7.84-7.834-7.873C116.369,664.049,113.59,667.221,113.607,672.844z M360.042,676.023
		c0.338,3.356,2.186,4.973,4.99,5.396c3.162,0.479,6.408,0.55,8.793-2.119c2.253-2.521,1.417-6.027-1.726-7.422
		c-1.427-0.633-3.011-0.903-4.505-1.392c-1.018-0.333-2.758-0.424-2.229-1.905c0.497-1.394,2.159-0.981,3.38-0.611
		c0.515,0.157,0.935,0.631,1.396,0.963c1.39,1.004,2.769,0.952,4.254,0.246c-1.963-4.873-7.679-6.676-11.662-3.924
		c-3.235,2.234-2.95,6.669,0.627,8.319c1.41,0.65,3.021,0.854,4.514,1.342c1.027,0.336,2.661,0.495,2.22,1.998
		c-0.436,1.483-2.037,1.338-3.329,1.088c-0.532-0.103-1.204-0.377-1.473-0.792C364.006,675.219,362.258,675.441,360.042,676.023z
		 M357.732,676.43c-2.056-0.829-3.474-0.255-5.062,0.664c-2.128,1.23-3.934,0.704-4.766-1.009c-0.488-1.006-0.554-2.021,1-2.057
		c2.426-0.057,4.854-0.075,7.279-0.035c1.4,0.023,2.039-0.443,2.047-1.959c0.022-4.277-2.677-7.46-6.844-7.887
		c-4.431-0.455-7.614,1.743-8.433,6.043c-0.289,1.516-0.297,3.147-0.091,4.681c0.507,3.755,2.841,6.138,6.236,6.668
		C352.886,682.131,355.719,680.536,357.732,676.43z M293.594,668.24c0.687,0.68,1.429,0.453,2.105,0.562
		c1.525,0.246,2.623-1.114,4.087-1.036c0.963,0.052,2.232-0.186,2.487,1.045c0.268,1.298-0.905,1.541-1.91,1.722
		c-1.684,0.304-3.411,0.489-4.954,1.279c-3.047,1.562-3.7,6.135-1.106,8.313c2.439,2.049,5.307,1.761,8.144,0.989
		c2.617-0.711,4.203-2.458,4.415-5.162c0.19-2.41,0.188-4.847,0.112-7.266c-0.065-2.082-1.285-3.477-3.238-4.07
		c-2.22-0.675-4.525-0.828-6.76-0.114C295.155,665.084,293.652,666.104,293.594,668.24z M181.057,675.227c-0.043,0-0.085,0-0.128,0
		c0-1.859,0.167-3.737-0.036-5.574c-0.379-3.429-2.699-5.303-6.515-5.537c-3.832-0.236-6.999,1.573-7.696,4.726
		c-0.811,3.66-0.308,7.412-0.292,11.123c0.006,1.401,1.195,1.376,2.211,1.383c1.03,0.006,2.099-0.012,2.21-1.405
		c0.08-0.996,0.061-2.001,0.069-3.002c0.018-2.005-0.033-4.011,0.051-6.012c0.073-1.739,0.728-3.105,2.784-3.078
		c1.94,0.025,2.832,1.115,2.856,2.996c0.013,1.002,0.016,2.004,0.021,3.006c0.008,1.575-0.081,3.157,0.044,4.722
		c0.156,1.953,1.35,2.936,3.046,2.729c1.748-0.213,1.308-1.579,1.361-2.642C181.101,677.52,181.057,676.372,181.057,675.227z
		 M279.389,671.111c0-1.715,0.005-3.431-0.002-5.146c-0.005-1.409-0.938-1.562-2.039-1.494c-1.574,0.097-2.3,1.059-2.399,2.499
		c-0.098,1.424-0.054,2.858-0.057,4.288c-0.011,5.3-0.519,6.566-2.691,6.673c-2.339,0.114-2.908-1.228-2.913-6.868
		c-0.001-1.573-0.038-3.147-0.005-4.719c0.033-1.533-0.804-1.91-2.167-1.921c-1.465-0.012-2.535,0.203-2.493,2.032
		c0.065,2.858-0.11,5.73,0.096,8.576c0.316,4.354,2.925,6.568,7.389,6.577c4.488,0.009,6.935-2.198,7.263-6.638
		C279.466,673.691,279.385,672.398,279.389,671.111z M198.403,672.724c-0.045-5.524-2.913-8.682-7.852-8.642
		c-4.864,0.038-7.766,3.371-7.681,8.822c0.084,5.45,3.054,8.731,7.876,8.704C195.534,681.581,198.448,678.197,198.403,672.724z
		 M395.17,672.787c0.005,5.589,2.784,8.776,7.688,8.816c4.938,0.04,7.985-3.524,7.789-9.18c-0.034-0.986-0.181-1.996-0.462-2.939
		c-1.048-3.519-3.235-5.205-6.843-5.396C398.221,663.816,395.165,667.07,395.17,672.787z M246.148,671.063c0.005,0,0.01,0,0.015,0
		c0-1.572-0.043-3.146,0.011-4.716c0.066-1.93-1.16-2.046-2.54-1.825c-1.617,0.257-1.912,1.502-1.921,2.883
		c-0.017,2.43,0.003,4.86-0.053,7.288c-0.041,1.778-0.839,3.047-2.74,3.226c-1.718,0.162-2.875-1.098-2.96-3.356
		c-0.103-2.711-0.09-5.431-0.027-8.145c0.043-1.878-1.088-1.953-2.503-1.995c-1.553-0.046-1.973,0.702-1.952,2.081
		c0.04,2.715-0.057,5.433,0.025,8.146c0.139,4.613,2.685,6.978,7.356,6.959c4.464-0.018,6.944-2.27,7.274-6.688
		C246.229,673.643,246.148,672.35,246.148,671.063z M463.747,672.389c0.005,0,0.011,0,0.017,0c0,2.286,0.047,4.574-0.015,6.858
		c-0.048,1.765,0.9,2.128,2.425,2.132c1.715,0.004,2.195-0.821,2.172-2.391c-0.058-3.857-0.03-7.716-0.013-11.573
		c0.016-3.706,0.029-3.706,3.554-3.899c0.143-0.008,0.287-0.018,0.428-0.001c1.632,0.197,2.344-0.476,2.298-2.16
		c-0.04-1.48-0.683-1.964-2.11-1.942c-4,0.063-8.001,0.015-12.002,0.044c-0.556,0.004-1.15,0.106-1.656,0.325
		c-0.996,0.431-1.565,1.228-1.515,2.355c0.066,1.48,1.199,1.325,2.18,1.368c0.57,0.025,1.146,0.053,1.713,0.007
		c1.788-0.144,2.631,0.563,2.547,2.448C463.674,668.099,463.747,670.245,463.747,672.389z M100.697,672.464c0.002,0,0.004,0,0.007,0
		c0,2.145,0.034,4.291-0.012,6.435c-0.031,1.475,0.261,2.442,2.074,2.484c1.914,0.045,2.488-0.773,2.443-2.562
		c-0.083-3.286-0.08-6.578,0.002-9.865c0.042-1.677-0.683-3.632,0.529-4.962c0.977-1.071,2.715-0.404,4.113-0.472
		c1.277-0.062,1.756-0.685,1.787-1.877c0.034-1.322-0.319-2.222-1.879-2.212c-4.146,0.024-8.293,0.005-12.439,0.018
		c-0.424,0.001-0.874,0.034-1.267,0.177c-1.198,0.438-1.91,1.338-1.804,2.609c0.117,1.412,1.306,1.242,2.29,1.272
		c0.572,0.017,1.148,0.054,1.715,0.003c1.87-0.168,2.541,0.708,2.463,2.518C100.627,668.172,100.697,670.319,100.697,672.464z
		 M145.49,669.375c-1.044-3.617-2.4-4.819-5.81-5.211c-3.482-0.4-6.289,0.793-7.641,3.537c-1.68,3.407-1.656,6.944,0.062,10.327
		c1.355,2.67,4.435,4.034,7.685,3.514c2.965-0.474,5.329-1.782,6.065-5.101c-1.965-0.896-3.36-0.208-4.958,0.632
		c-2.905,1.527-5.067,0.286-5.514-2.933c-0.136-0.977-0.12-2.018,0.057-2.987c0.559-3.083,2.588-4.176,5.228-2.48
		C142.329,669.742,143.786,669.717,145.49,669.375z M412.906,671.39c-0.021,0-0.042,0-0.063,0c0,2.566,0.044,5.134-0.016,7.698
		c-0.037,1.62,0.598,2.31,2.261,2.294c1.64-0.017,2.332-0.675,2.271-2.308c-0.063-1.708-0.027-3.421-0.007-5.131
		c0.026-2.333-0.606-4.828,2.097-6.378c0.702-0.403,0.868-1.716-0.263-2.022c-2.262-0.612-2.506-1.348-0.312-2.332
		c1.229-0.552,1.229-1.454,1.104-2.448c-0.171-1.358-1.264-1.334-2.274-1.338c-2.977-0.009-4.547,1.276-4.761,4.271
		C412.761,666.249,412.906,668.824,412.906,671.39z M377.773,669.309c0,2.291,0,4.581,0,6.871c0,0.144-0.003,0.286,0,0.43
		c0.085,3.996,1.355,5.163,5.185,4.77c0.714-0.073,1.499-0.083,1.707-0.957c0.195-0.822,0.433-1.934-0.526-2.264
		c-3.059-1.052-1.792-3.554-1.835-5.461c-0.043-1.973-0.987-4.348,1.603-5.725c0.72-0.382,1.327-1.79,0.443-2.049
		c-1.951-0.573-2.119-1.77-2.271-3.419c-0.137-1.51-1.401-2.072-2.828-2.028c-1.776,0.054-1.444,1.456-1.463,2.532
		C377.744,664.441,377.773,666.875,377.773,669.309z M309.276,670.173c-0.002,0-0.005,0-0.007,0c0,2.727,0.045,5.453-0.016,8.177
		c-0.039,1.749,0.064,3.093,2.43,3.05c2.107-0.038,2.247-1.215,2.236-2.803c-0.032-5.165-0.002-10.329-0.027-15.494
		c-0.003-0.706-0.064-1.452-0.299-2.109c-0.456-1.277-1.568-1.551-2.79-1.52c-1.407,0.037-1.525,1.027-1.526,2.093
		C309.274,664.435,309.276,667.304,309.276,670.173z M248.511,670.29c0.009,0,0.018,0,0.026,0c0,3.149-0.033,6.299,0.014,9.447
		c0.024,1.647,1.277,1.624,2.459,1.614c1.096-0.009,2.035-0.248,2.037-1.608c0.01-5.868,0.009-11.737-0.01-17.606
		c-0.001-0.413-0.104-0.866-0.293-1.231c-0.599-1.156-1.646-1.521-2.876-1.429c-1.462,0.109-1.34,1.243-1.349,2.225
		C248.496,664.564,248.511,667.427,248.511,670.29z M255.774,670.021c0,2.286,0.117,4.579-0.025,6.855
		c-0.267,4.273,2.013,4.459,5.06,4.492c0.701,0.008,1.496,0.007,1.759-0.857c0.25-0.824,0.469-2.004-0.402-2.299
		c-3.041-1.03-1.884-3.496-1.943-5.423c-0.065-2.137-0.875-4.632,1.91-5.987c0.596-0.29,0.794-1.729,0.306-1.815
		c-2.329-0.411-2.159-2.099-2.455-3.769c-0.272-1.537-1.646-1.88-3.015-1.697c-1.41,0.188-1.17,1.407-1.182,2.357
		C255.752,664.593,255.774,667.307,255.774,670.021z M281.708,675.535c-0.034,0-0.069,0-0.103,0c0,1.287,0.037,2.574-0.009,3.859
		c-0.068,1.895,1.173,1.945,2.559,1.971c1.531,0.027,1.983-0.773,1.935-2.142c-0.04-1.142-0.001-2.287-0.002-3.43
		c-0.003-3.147-0.519-6.428,4.143-7.05c1.64-0.219,0.844-2.176,0.744-3.331c-0.102-1.171-1.225-0.942-2.039-0.888
		c-3.827,0.26-6.641,2.831-7.195,6.731C281.542,672.656,281.708,674.107,281.708,675.535z M455.55,670.155
		c0-2.855,0.02-5.712-0.013-8.567c-0.009-0.813,0.123-1.8-1.029-2.036c-1.217-0.25-2.338,0.059-2.993,1.126
		c-0.345,0.563-0.416,1.359-0.421,2.052c-0.032,5.426,0.012,10.853-0.038,16.278c-0.015,1.58,0.484,2.371,2.188,2.369
		c1.591-0.002,2.364-0.537,2.328-2.226C455.507,676.154,455.554,673.154,455.55,670.155z"/>
	<path fill-rule="evenodd" clip-rule="evenodd" fill="#030303" d="M195.933,569.839c1.619,0.783,2.607,1.265,3.598,1.741
		c7.043,3.384,11.356,8.909,13.237,16.486c1.321,5.318,1.904,10.73,2.238,16.156c0.485,7.867,0.805,15.75,0.945,23.631
		c0.112,6.354,0.483,12.556,5.296,18.228c-3.497,0-6.296,0-9.096,0c-7.886,0-15.773-0.07-23.658,0.047
		c-2.081,0.031-3.09-0.698-3.774-2.612c-1.32-3.692-1.754-7.521-2.117-11.368c-0.659-7-0.785-14.027-0.858-21.054
		c-0.047-4.466-0.652-8.858-1.734-13.179c-2.221-8.873-5.983-12.221-15.036-13.393c-1.702-0.221-3.433-0.297-5.15-0.302
		c-11.041-0.03-22.081-0.039-33.122-0.017c-3.186,0.007-3.236,0.064-3.239,3.34c-0.018,17.637-0.009,35.272-0.009,52.909
		c0,1.004-0.095,2.019,0.019,3.01c0.244,2.123-0.687,2.678-2.716,2.657c-9.033-0.091-18.066-0.04-27.1-0.04
		c-0.287,0-0.575-0.026-0.859,0c-1.72,0.162-2.302-0.712-2.193-2.31c0.059-0.856,0.009-1.72,0.009-2.58
		c0-44.88-0.003-89.76,0.011-134.64c0-1.857-0.021-3.747,0.289-5.567c1.394-8.181,7.833-13.754,16.138-13.867
		c8.315-0.113,16.633-0.034,24.949-0.033c12.618,0.002,25.236,0.009,37.854,0.015c6.769,0.004,13.436,0.807,19.971,2.591
		c16.748,4.569,27.077,16.697,28.846,34.011c0.657,6.431,0.76,12.868-0.604,19.261c-2.555,11.97-8.816,20.989-20.355,25.88
		C197.337,568.998,196.999,569.235,195.933,569.839z M147.128,514.548c0-0.046,0-0.093,0-0.14c-6.599,0-13.198,0.022-19.797-0.008
		c-4.439-0.021-3.878,0.15-3.879,4.07c-0.002,11.334-0.01,22.667,0.004,34c0.005,3.781,0.031,3.818,3.688,3.824
		c11.62,0.017,23.241,0.021,34.861-0.013c2.148-0.006,4.321-0.052,6.44-0.362c6.952-1.021,13.321-3.336,16.003-10.542
		c2.924-7.856,2.897-15.72-1.887-23.06c-0.387-0.594-0.912-1.104-1.407-1.621c-3.879-4.048-8.727-5.989-14.232-6.113
		C160.326,514.435,153.726,514.548,147.128,514.548z"/>
	<path fill-rule="evenodd" clip-rule="evenodd" fill="#0ED604" d="M393.799,128.349c0.913,0.19,1.184,0.681,1.479,1.167
		c12.75,21.024,23.766,42.844,30.398,66.653c2.274,8.165,3.786,16.457,3.994,24.976c0.277,11.357-2.925,21.837-8.061,31.746
		c-9.609,18.541-23.897,32.814-41.339,44.008c-3.715,2.384-7.931,3.977-11.857,6.043c-12.444,6.549-24.716,13.373-35.227,22.904
		c-0.185,0.168-0.514,0.177-1.103,0.363c-0.879-2.54-1.223-5.141-1.326-7.816c-0.518-13.513,2.437-26.475,6.297-39.271
		c4.437-14.708,10.402-28.819,17.195-42.578c10.34-20.943,20.401-42.008,28.446-63.967c4.44-12.118,8.378-24.387,10.323-37.2
		C393.364,133.113,393.529,130.823,393.799,128.349z"/>
	<path fill-rule="evenodd" clip-rule="evenodd" fill="#0596D6" d="M210.48,100.77c0.097-1.548,0.976-1.907,1.594-2.396
		c19.942-15.782,41.563-28.485,66.052-35.906c12.306-3.729,24.857-5.56,37.734-4.904c8.212,0.419,16.202,1.978,23.899,4.86
		c14.613,5.471,22.458,16.683,26.104,31.292c2.379,9.529,2.973,19.249,2.329,29.023c-1.896,28.818-9.663,56.227-20.121,82.977
		c-0.254,0.65-0.347,1.403-1.186,1.785c-1.078-0.7-0.403-1.769-0.387-2.617c0.256-13.714-1.216-27.175-5.918-40.146
		c-7.417-20.456-21.12-35.497-39.977-46.005c-14.551-8.109-30.273-12.787-46.615-15.548
		C239.666,100.765,225.226,100.157,210.48,100.77z"/>
	<path fill-rule="evenodd" clip-rule="evenodd" fill="#030303" d="M357.572,565.795c0-13.051-0.011-26.103,0.007-39.153
		c0.004-3.436,0.043-3.47,3.563-3.478c8.462-0.021,16.924-0.021,25.386,0c3.452,0.008,3.488,0.042,3.489,3.498
		c0.012,24.382,0.011,48.763,0.003,73.145c-0.001,3.016,0.065,6.01,0.839,8.961c1.099,4.196,3.339,7.532,6.941,9.998
		c8.684,5.942,20.719,5.419,28.851-1.292c4.571-3.773,6.034-8.911,6.296-14.516c0.153-3.292,0.05-6.596,0.05-9.895
		c0.003-17.784,0.024-35.568-0.017-53.353c-0.008-3.226,0.443-6.301,2.16-9.065c2.927-4.711,7.097-7.4,12.747-7.461
		c4.732-0.05,9.47,0.087,14.197-0.073c2.303-0.078,2.873,0.75,2.856,2.95c-0.093,12.62-0.042,25.242-0.046,37.863
		c-0.004,11.187,0.04,22.374-0.041,33.561c-0.056,7.628-0.986,15.151-3.37,22.439c-2.94,8.988-8.366,15.819-16.963,20.113
		c-23.863,11.921-47.213,10.808-70.101-2.576c-6.338-3.707-10.248-9.446-12.817-16.199c-3.109-8.172-3.854-16.73-3.972-25.35
		c-0.139-10.038-0.033-20.079-0.033-30.118C357.59,565.795,357.581,565.795,357.572,565.795z"/>
	<path fill-rule="evenodd" clip-rule="evenodd" fill="#D32432" d="M162.571,235.814c-1.436-0.97-1.875-2.228-2.48-3.344
		c-7.95-14.667-13.26-30.175-14.133-46.932c-1.065-20.448,5.552-38.051,20.397-52.34c17.021-16.384,37.435-22.49,60.724-19.98
		c16.604,1.79,32.047,7.309,46.967,14.445c11.785,5.637,22.851,12.524,33.371,20.274c1.239,0.913,2.433,1.888,3.428,3.442
		c-3.017-0.39-6.031-0.796-9.05-1.168c-21.569-2.657-42.612-0.675-62.92,7.352c-15.669,6.194-29.293,15.525-41.375,27.221
		c-14.401,13.941-25.449,30.192-33.715,48.395C163.433,233.956,163.072,234.728,162.571,235.814z"/>
	<path fill-rule="evenodd" clip-rule="evenodd" fill="#D32432" d="M262.834,170.307c-0.086,0.346-0.072,0.646-0.214,0.813
		c-13.233,15.644-20.09,34.156-24.227,53.884c-4.649,22.176-5.293,44.614-4.265,67.149c0.699,15.317,2.009,30.575,4.913,45.658
		c0.077,0.4,0.01,0.829,0.01,1.408c-2.388,0.326-4.516-0.548-6.648-1.116c-13.573-3.617-26.188-9.206-36.921-18.48
		c-16.119-13.928-21.775-31.781-19.237-52.508c2.361-19.274,11.111-35.665,23.535-50.238c17.109-20.069,38.261-34.799,61.794-46.324
		C261.926,170.38,262.37,170.393,262.834,170.307z"/>
	<path fill-rule="evenodd" clip-rule="evenodd" fill="#030303" d="M328.203,646.232c-6.32,0.321-12.61-0.253-18.896-0.752
		c-9.048-0.719-15-6.28-16.458-15.365c-0.453-2.818-0.667-5.705-0.669-8.562c-0.041-43.442-0.029-86.884-0.028-130.325
		c0-0.86,0.015-1.721,0.015-2.581c0-1.062,0.568-1.557,1.585-1.55c5.876,0.04,11.793-0.321,17.617,0.25
		c6.566,0.644,12.172,7.062,12.56,13.884c0.317,5.575,0.135,11.178,0.171,16.769c0.007,1.003,0.077,2.014-0.013,3.009
		c-0.164,1.816,0.513,2.549,2.411,2.508c4.586-0.099,9.177,0.047,13.762-0.065c1.95-0.048,2.996,0.382,2.804,2.582
		c-0.162,1.852,0.001,3.73-0.145,5.585c-0.621,7.942-6.629,13.688-14.654,14.089c-4.145,0.207-4.16,0.207-4.161,4.151
		c-0.006,20.646-0.003,41.291,0.001,61.937c0,1.002-0.021,2.013,0.086,3.007c0.457,4.223,2.162,6.035,6.381,6.869
		c3.413,0.675,6.863,0.295,10.295,0.312c1.696,0.008,2.215,0.619,2.198,2.266c-0.067,6.45-0.105,12.904,0.016,19.354
		c0.042,2.201-0.94,2.682-2.835,2.651C336.231,646.188,332.217,646.232,328.203,646.232z"/>
	<path fill-rule="evenodd" clip-rule="evenodd" fill="#030303" d="M242.92,584.565c0-19.207,0.002-38.415-0.001-57.623
		c0-3.844-0.404-3.801,3.659-3.788c4.301,0.014,8.61,0.189,12.899-0.035c7.232-0.379,15.752,5.746,15.925,15.765
		c0.018,1.003,0.007,2.007,0.007,3.01c0,33.112,0,66.224,0,99.336c0,0.859-0.061,1.725,0.012,2.579
		c0.141,1.664-0.581,2.293-2.232,2.287c-9.316-0.038-18.635-0.075-27.951,0.017c-2.866,0.028-2.307-1.865-2.309-3.493
		c-0.014-15.051-0.009-30.103-0.009-45.153C242.92,593.166,242.92,588.866,242.92,584.565z"/>
	<path fill-rule="evenodd" clip-rule="evenodd" fill="#605F5F" d="M342.883,227.907c0.229,2.091-0.052,4.282-0.549,6.474
		c-1.405,6.2-3.914,11.979-6.926,17.525c-4.718,8.686-9.598,17.283-14.4,25.923c-2.576,4.635-4.838,9.424-7.064,14.237
		c-7.026,15.185-8.525,30.986-6.127,47.443c5.403,37.082,15.07,73.166,25.054,109.187c0.83,2.997,1.909,5.932,2.149,8.73
		c-0.456-0.791-1.192-1.839-1.703-2.988c-12.974-29.177-26.212-58.249-37.103-88.291c-5.892-16.25-9.413-33.058-9.485-50.434
		c-0.051-12.092,3.273-23.067,10.654-32.895c14.045-18.701,29.021-36.63,44.153-54.441
		C341.794,228.072,341.985,227.64,342.883,227.907z"/>
	<path fill-rule="evenodd" clip-rule="evenodd" fill="#0596D6" d="M514.104,517.731c3.915-3.14,7.605-3.798,11.574-3.149
		c4.216,0.688,7.04,2.961,8.183,7.165c0.489,1.803,0.874,3.619,0.871,5.498c-0.009,5.586,0.136,11.177-0.068,16.756
		c-0.302,8.23-4.861,12.981-13.032,13.724c-4.292,0.391-8.58,0.354-12.701-1.292c-4.302-1.718-7.053-4.652-8.051-9.285
		c-0.673-3.12-0.69-6.248-0.758-9.396c-0.032-1.527,0.352-2.443,2.136-2.404c3.436,0.073,6.876,0.063,10.313,0
		c1.675-0.031,2.287,0.699,2.242,2.312c-0.053,1.859,0.007,3.725,0.061,5.586c0.029,0.999,0.076,2.01,0.244,2.993
		c0.245,1.428,1.098,2.387,2.613,2.334c1.536-0.053,2.299-1.037,2.302-2.547c0.011-6.444,0.019-12.89-0.018-19.335
		c-0.008-1.573-0.669-2.938-2.378-3.062c-1.679-0.121-2.712,1.001-2.722,2.65c-0.012,1.896-0.867,2.428-2.624,2.376
		c-3.148-0.093-6.304-0.072-9.453-0.008c-1.694,0.034-2.675-0.347-2.609-2.357c0.276-8.446,0.489-16.896,0.635-25.345
		c0.03-1.804,0.918-2.102,2.416-2.097c8.737,0.03,17.476,0.033,26.214-0.004c1.709-0.007,2.508,0.439,2.61,2.396
		c0.383,7.316,0.462,7.312-6.747,7.313c-3.008,0-6.018,0.051-9.024-0.015c-1.646-0.035-2.319,0.614-2.247,2.271
		C514.17,512.796,514.104,514.788,514.104,517.731z"/>
	<path fill-rule="evenodd" clip-rule="evenodd" fill="#030303" d="M311.771,221.083c-0.641,11.272-4.065,21.58-10.809,30.708
		c-1.711,2.318-3.71,4.387-6.321,5.726c-3.885,1.991-6.992,0.911-8.74-3.11c-1.339-3.081-1.715-6.378-1.47-9.687
		c0.775-10.486,3.928-20.185,9.944-28.877c1.724-2.49,3.709-4.758,6.281-6.409c4.521-2.901,8.307-1.537,10.1,3.567
		C311.675,215.619,311.77,218.331,311.771,221.083z"/>
	<path fill-rule="evenodd" clip-rule="evenodd" fill="#0596D6" d="M492.612,528.019c0,8.459,0.023,16.919-0.012,25.379
		c-0.013,3.265-0.073,3.292-3.345,3.336c-2.867,0.039-5.738-0.078-8.602,0.035c-2.055,0.082-2.76-0.725-2.737-2.755
		c0.08-7.024,0.037-14.051,0.026-21.077c-0.006-4.015,0.019-8.03-0.073-12.043c-0.101-4.377-0.883-5.109-5.36-5.397
		c-4.621-0.298-4.633-0.383-4.386-4.959c0.083-1.519,0.55-2.337,2.07-2.737c4.964-1.308,9.236-3.794,12.713-7.633
		c1.09-1.204,7.575-1.896,8.962-1.083c1.1,0.643,0.726,1.758,0.729,2.695C492.623,510.525,492.612,519.272,492.612,528.019z"/>
	<path fill-rule="evenodd" clip-rule="evenodd" fill="#605F5F" d="M315.246,347.972c8.152,5.234,58.402,55.874,61.481,61.921
		c-0.411,0.378-0.834,0.104-1.209-0.029c-16.684-5.938-31.81-14.43-44.139-27.361c-8.081-8.475-13.651-18.353-15.917-29.947
		c-0.22-1.121-0.348-2.264-0.45-3.402C314.979,348.783,315.156,348.393,315.246,347.972z"/>
	<path fill-rule="evenodd" clip-rule="evenodd" fill="#605F5F" d="M251.264,245.61c2.703,3.278,5.501,6.482,8.091,9.847
		c8.974,11.661,16.448,24.125,20.056,38.577c2.037,8.164,2.62,16.379,0.539,24.641c-0.139,0.549-0.323,1.094-0.56,1.607
		c-0.11,0.24-0.395,0.398-0.779,0.764c-1.57-5.59-4.605-10.359-7.393-15.25c-6.814-11.951-13.316-24.034-16.886-37.454
		c-1.584-5.956-2.789-11.981-3.671-18.074c-0.203-1.399-0.188-2.83-0.274-4.247C250.678,245.884,250.971,245.747,251.264,245.61z"/>
	<path fill-rule="evenodd" clip-rule="evenodd" fill="#D32432" d="M258.902,512.525c-4.432,0.001-8.865-0.06-13.295,0.029
		c-1.943,0.038-2.833-0.479-2.795-2.645c0.116-6.718,0.148-13.441-0.014-20.157c-0.059-2.443,0.989-2.838,3.043-2.796
		c4.716,0.099,9.437-0.049,14.153,0.063c8.528,0.204,15.025,6.637,15.451,15.247c0.12,2.425-0.104,4.87,0.07,7.288
		c0.161,2.24-0.639,3.06-2.888,3.004C268.055,512.444,263.478,512.525,258.902,512.525z"/>
	<path fill-rule="evenodd" clip-rule="evenodd" fill="#605F5F" d="M448.05,681.191c-4.576,0.105-4.576,0.105-4.934-3.625
		c-0.413-4.305-2.368-5.64-6.557-4.595c-1.101,0.274-1.277,0.972-1.292,1.869c-0.024,1.43-0.08,2.86-0.024,4.287
		c0.065,1.662-0.681,2.274-2.309,2.253c-1.56-0.021-2.378-0.486-2.36-2.211c0.06-5.573,0.02-11.146,0.039-16.719
		c0.007-1.91,1.063-2.942,2.919-2.972c2.998-0.049,6.025-0.213,8.991,0.112c5.033,0.552,7.394,5.095,4.729,9.348
		c-1.012,1.615-0.958,2.412-0.154,3.99C448.351,675.387,447.521,678.235,448.05,681.191z M439.151,668.899
		c0.343-0.016,1.205,0.031,2.035-0.109c1.841-0.312,2.646-1.571,2.276-3.325c-0.279-1.324-1.187-1.991-2.406-1.955
		c-1.898,0.057-3.939-0.854-5.657,0.653c-0.172,0.151-0.163,0.52-0.218,0.791C434.548,668.067,435.268,668.885,439.151,668.899z"/>
	<path fill-rule="evenodd" clip-rule="evenodd" fill="#605F5F" d="M228.881,673.962c-1.6,5.954-4.272,7.906-10.063,7.766
		c-5.064-0.123-8.443-2.861-9.373-7.752c-0.265-1.394-0.274-2.854-0.245-4.281c0.165-8.079,5.703-12.329,13.534-10.434
		c2.519,0.609,4.461,1.977,5.418,4.433c0.328,0.842,1.278,1.89,0.242,2.729c-0.959,0.775-2.237,0.551-3.242-0.049
		c-0.704-0.42-1.172-1.216-1.797-1.788c-3.037-2.777-7.602-1.673-9.053,2.196c-0.833,2.221-0.863,4.473-0.144,6.741
		c0.648,2.046,1.77,3.614,4.049,3.951c2.245,0.332,4.445,0.173,5.583-2.131C224.976,672.947,226.79,673.804,228.881,673.962z"/>
	<path fill-rule="evenodd" clip-rule="evenodd" fill="#605F5F" d="M153.091,664.896c0.534,0.332,0.896,0.114,1.296-0.012
		c5.79-1.82,9.317,0.469,9.716,6.42c0.172,2.567,0.014,5.155,0.077,7.733c0.039,1.601-0.555,2.336-2.247,2.347
		c-1.753,0.011-2.243-0.839-2.18-2.392c0.051-1.286,0.016-2.578,0.005-3.867c-0.008-1.002,0.032-2.012-0.072-3.006
		c-0.286-2.714-1.537-4.173-3.448-4.132c-1.874,0.04-3.181,1.501-3.407,4.228c-0.189,2.278-0.144,4.582-0.083,6.871
		c0.043,1.629-0.536,2.331-2.234,2.297c-1.674-0.033-2.246-0.753-2.232-2.363c0.048-5.729,0.018-11.46,0.02-17.19
		c0-1.188-0.008-2.422,1.688-2.354c1.421,0.058,2.444,0.634,2.688,2.219C152.845,662.789,152.391,663.988,153.091,664.896z"/>
	<path fill-rule="evenodd" clip-rule="evenodd" fill="#605F5F" d="M333.839,659.441c1.715,0.002,3.43,0.005,5.145,0.001
		c1.18-0.003,1.849,0.454,1.883,1.757c0.037,1.371-0.367,2.203-1.891,2.189c-2-0.019-4.001-0.015-6.001,0.015
		c-1.646,0.025-3.512-0.486-3.438,2.37c0.077,2.987,2.161,1.932,3.644,2.106c0.846,0.1,1.714-0.01,2.569,0.028
		c0.806,0.036,1.862-0.23,2.032,0.971c0.177,1.246-0.248,2.365-1.611,2.612c-1.251,0.227-2.56,0.275-3.834,0.21
		c-1.957-0.1-2.949,0.55-2.782,2.673c0.122,1.563-0.033,3.145,0.031,4.713c0.067,1.652-0.665,2.297-2.291,2.29
		c-1.547-0.006-2.407-0.452-2.392-2.188c0.05-5.429-0.051-10.86,0.048-16.288c0.048-2.627,0.765-3.287,3.317-3.439
		C330.118,659.35,331.981,659.439,333.839,659.441z"/>
	<path fill-rule="evenodd" clip-rule="evenodd" fill="#605F5F" d="M113.61,672.842c-0.021-5.621,2.758-8.793,7.673-8.758
		c4.63,0.033,7.74,3.202,7.834,7.873c0.03,1.465-0.525,2.06-1.98,2.035c-2.429-0.041-4.864-0.063-7.29,0.051
		c-1.472,0.069-1.824,1.072-0.988,2.311c0.833,1.231,2.009,1.573,3.36,1.243c0.669-0.163,1.26-0.624,1.905-0.907
		c1.404-0.617,3.22-1.67,4.115,0.027c0.676,1.28-0.95,2.536-2.101,3.354c-2.672,1.898-5.604,2.146-8.515,0.696
		C114.394,679.158,113.575,676.181,113.61,672.842z M118.313,670.771c1.226,0.563,2.364,0.438,3.459,0.377
		c0.873-0.048,2.251,0.457,2.239-1.123c-0.01-1.318-1.006-1.988-2.261-2.096C119.741,667.759,118.608,668.685,118.313,670.771z"/>
	<path fill-rule="evenodd" clip-rule="evenodd" fill="#605F5F" d="M360.042,676.023c2.216-0.582,3.964-0.805,5.249,1.188
		c0.269,0.415,0.94,0.689,1.473,0.792c1.292,0.25,2.894,0.396,3.329-1.088c0.441-1.503-1.192-1.662-2.22-1.998
		c-1.493-0.487-3.104-0.691-4.514-1.342c-3.577-1.65-3.862-6.085-0.627-8.319c3.983-2.752,9.699-0.949,11.662,3.924
		c-1.485,0.706-2.864,0.758-4.254-0.246c-0.461-0.332-0.881-0.806-1.396-0.963c-1.221-0.37-2.883-0.782-3.38,0.611
		c-0.528,1.481,1.212,1.572,2.229,1.905c1.494,0.488,3.078,0.759,4.505,1.392c3.143,1.395,3.979,4.9,1.726,7.422
		c-2.385,2.669-5.631,2.598-8.793,2.119C362.228,680.996,360.38,679.38,360.042,676.023z"/>
	<path fill-rule="evenodd" clip-rule="evenodd" fill="#605F5F" d="M357.732,676.43c-2.014,4.106-4.847,5.701-8.632,5.109
		c-3.396-0.53-5.729-2.913-6.236-6.668c-0.206-1.533-0.198-3.165,0.091-4.681c0.818-4.3,4.002-6.498,8.433-6.043
		c4.167,0.427,6.866,3.609,6.844,7.887c-0.008,1.516-0.646,1.982-2.047,1.959c-2.425-0.04-4.854-0.021-7.279,0.035
		c-1.554,0.036-1.488,1.051-1,2.057c0.832,1.713,2.638,2.239,4.766,1.009C354.259,676.175,355.677,675.601,357.732,676.43z
		 M353.346,670.995c-0.219-2.519-1.454-3.234-3.252-3.063c-1.635,0.156-2.559,1.073-2.444,2.983
		C349.502,671.345,351.298,671.227,353.346,670.995z"/>
	<path fill-rule="evenodd" clip-rule="evenodd" fill="#605F5F" d="M293.594,668.24c0.058-2.136,1.561-3.156,3.382-3.738
		c2.234-0.714,4.54-0.561,6.76,0.114c1.954,0.594,3.173,1.988,3.238,4.07c0.075,2.419,0.078,4.855-0.112,7.266
		c-0.212,2.704-1.797,4.451-4.415,5.162c-2.836,0.771-5.705,1.06-8.144-0.989c-2.594-2.179-1.941-6.752,1.106-8.313
		c1.543-0.79,3.27-0.976,4.954-1.279c1.004-0.181,2.178-0.424,1.91-1.722c-0.255-1.23-1.524-0.993-2.487-1.045
		c-1.465-0.078-2.563,1.282-4.087,1.036C295.023,668.693,294.281,668.92,293.594,668.24z M302.848,674.303
		c0.061-0.616-0.33-1.04-1.209-1.015c-2.429,0.071-4.604,1.411-4.567,2.86c0.029,1.16,0.725,1.77,1.838,1.908
		C300.853,678.3,302.708,676.634,302.848,674.303z"/>
	<path fill-rule="evenodd" clip-rule="evenodd" fill="#605F5F" d="M181.057,675.227c0,1.146,0.044,2.293-0.013,3.435
		c-0.053,1.063,0.387,2.429-1.361,2.642c-1.697,0.206-2.89-0.776-3.046-2.729c-0.125-1.564-0.036-3.146-0.044-4.722
		c-0.005-1.002-0.008-2.004-0.021-3.006c-0.024-1.881-0.916-2.971-2.856-2.996c-2.057-0.027-2.711,1.339-2.784,3.078
		c-0.084,2.001-0.033,4.007-0.051,6.012c-0.008,1.001,0.01,2.006-0.069,3.002c-0.111,1.394-1.181,1.411-2.21,1.405
		c-1.016-0.007-2.206,0.019-2.211-1.383c-0.016-3.711-0.519-7.463,0.292-11.123c0.698-3.152,3.865-4.962,7.696-4.726
		c3.816,0.234,6.136,2.108,6.515,5.537c0.204,1.837,0.036,3.715,0.036,5.574C180.972,675.227,181.014,675.227,181.057,675.227z"/>
	<path fill-rule="evenodd" clip-rule="evenodd" fill="#605F5F" d="M279.387,671.111c-0.002,1.287,0.079,2.58-0.016,3.859
		c-0.328,4.439-2.774,6.646-7.263,6.638c-4.464-0.009-7.073-2.223-7.389-6.577c-0.206-2.846-0.031-5.718-0.096-8.576
		c-0.042-1.829,1.028-2.044,2.493-2.032c1.363,0.011,2.2,0.388,2.167,1.921c-0.033,1.571,0.003,3.146,0.005,4.719
		c0.005,5.641,0.573,6.982,2.913,6.868c2.173-0.106,2.681-1.373,2.691-6.673c0.003-1.43-0.042-2.864,0.057-4.288
		c0.099-1.44,0.825-2.402,2.399-2.499c1.102-0.067,2.034,0.085,2.039,1.494C279.395,667.681,279.389,669.396,279.387,671.111z"/>
	<path fill-rule="evenodd" clip-rule="evenodd" fill="#605F5F" d="M198.403,672.724c0.045,5.474-2.87,8.857-7.656,8.885
		c-4.823,0.027-7.792-3.254-7.876-8.704c-0.085-5.451,2.817-8.784,7.681-8.822C195.49,664.042,198.358,667.199,198.403,672.724z
		 M194.003,673.307c-0.08-0.939-0.08-1.658-0.211-2.354c-0.32-1.695-1.208-2.948-3.062-3.012c-1.869-0.063-2.746,1.126-3.21,2.826
		c-0.477,1.744-0.154,3.41,0.32,5.048c0.402,1.385,1.563,2.078,2.93,2.076c1.214-0.002,2.179-0.788,2.632-1.895
		C193.771,675.096,193.842,674.072,194.003,673.307z"/>
	<path fill-rule="evenodd" clip-rule="evenodd" fill="#605F5F" d="M395.17,672.787c-0.005-5.717,3.051-8.971,8.172-8.699
		c3.607,0.191,5.795,1.878,6.843,5.396c0.281,0.943,0.428,1.953,0.462,2.939c0.196,5.655-2.852,9.22-7.789,9.18
		C397.954,681.563,395.175,678.376,395.17,672.787z M406.278,672.189c-0.047-0.274-0.073-1.007-0.307-1.665
		c-0.501-1.407-1.289-2.581-3.012-2.592c-1.902-0.012-2.817,1.185-3.247,2.833c-0.176,0.677-0.171,1.415-0.163,2.125
		c0.033,3.21,1.36,5.104,3.464,4.997C405.01,677.786,406.349,675.635,406.278,672.189z"/>
	<path fill-rule="evenodd" clip-rule="evenodd" fill="#605F5F" d="M246.148,671.063c0,1.286,0.081,2.579-0.015,3.857
		c-0.331,4.419-2.811,6.671-7.274,6.688c-4.671,0.019-7.217-2.346-7.356-6.959c-0.083-2.714,0.015-5.432-0.025-8.146
		c-0.021-1.379,0.399-2.127,1.952-2.081c1.415,0.042,2.546,0.117,2.503,1.995c-0.063,2.714-0.075,5.434,0.027,8.145
		c0.085,2.259,1.242,3.519,2.96,3.356c1.901-0.179,2.699-1.447,2.74-3.226c0.056-2.428,0.036-4.858,0.053-7.288
		c0.009-1.381,0.305-2.626,1.921-2.883c1.38-0.221,2.606-0.104,2.54,1.825c-0.054,1.57-0.011,3.144-0.011,4.716
		C246.158,671.063,246.153,671.063,246.148,671.063z"/>
	<path fill-rule="evenodd" clip-rule="evenodd" fill="#605F5F" d="M463.747,672.389c0-2.144-0.073-4.29,0.021-6.429
		c0.084-1.885-0.759-2.592-2.547-2.448c-0.567,0.046-1.143,0.019-1.713-0.007c-0.98-0.043-2.113,0.112-2.18-1.368
		c-0.051-1.128,0.519-1.925,1.515-2.355c0.506-0.219,1.101-0.321,1.656-0.325c4.001-0.029,8.002,0.019,12.002-0.044
		c1.428-0.021,2.07,0.462,2.11,1.942c0.046,1.685-0.666,2.357-2.298,2.16c-0.141-0.017-0.285-0.007-0.428,0.001
		c-3.524,0.193-3.538,0.193-3.554,3.899c-0.018,3.857-0.045,7.716,0.013,11.573c0.023,1.569-0.457,2.395-2.172,2.391
		c-1.524-0.004-2.473-0.367-2.425-2.132c0.062-2.284,0.015-4.572,0.015-6.858C463.758,672.389,463.752,672.389,463.747,672.389z"/>
	<path fill-rule="evenodd" clip-rule="evenodd" fill="#605F5F" d="M100.697,672.464c0-2.145-0.07-4.292,0.021-6.434
		c0.078-1.81-0.593-2.686-2.463-2.518c-0.567,0.051-1.144,0.014-1.715-0.003c-0.984-0.03-2.173,0.14-2.29-1.272
		c-0.105-1.271,0.606-2.172,1.804-2.609c0.393-0.143,0.842-0.176,1.267-0.177c4.146-0.013,8.293,0.007,12.439-0.018
		c1.56-0.01,1.913,0.89,1.879,2.212c-0.031,1.192-0.51,1.815-1.787,1.877c-1.397,0.067-3.136-0.6-4.113,0.472
		c-1.212,1.33-0.487,3.285-0.529,4.962c-0.083,3.287-0.085,6.579-0.002,9.865c0.045,1.788-0.529,2.606-2.443,2.562
		c-1.813-0.042-2.105-1.01-2.074-2.484c0.045-2.144,0.012-4.29,0.012-6.435C100.702,672.464,100.699,672.464,100.697,672.464z"/>
	<path fill-rule="evenodd" clip-rule="evenodd" fill="#605F5F" d="M145.49,669.375c-1.705,0.342-3.162,0.367-4.827-0.702
		c-2.64-1.695-4.669-0.603-5.228,2.48c-0.176,0.97-0.192,2.011-0.057,2.987c0.447,3.219,2.609,4.46,5.514,2.933
		c1.599-0.84,2.994-1.528,4.958-0.632c-0.737,3.318-3.101,4.627-6.065,5.101c-3.25,0.521-6.329-0.844-7.685-3.514
		c-1.718-3.383-1.742-6.92-0.062-10.327c1.353-2.744,4.159-3.938,7.641-3.537C143.09,664.556,144.446,665.758,145.49,669.375z"/>
	<path fill-rule="evenodd" clip-rule="evenodd" fill="#605F5F" d="M412.906,671.39c0-2.565-0.146-5.141,0.038-7.693
		c0.214-2.995,1.784-4.28,4.761-4.271c1.011,0.004,2.104-0.021,2.274,1.338c0.125,0.994,0.125,1.896-1.104,2.448
		c-2.194,0.984-1.95,1.72,0.312,2.332c1.131,0.307,0.965,1.619,0.263,2.022c-2.703,1.55-2.07,4.045-2.097,6.378
		c-0.021,1.71-0.056,3.423,0.007,5.131c0.061,1.633-0.632,2.291-2.271,2.308c-1.663,0.016-2.298-0.674-2.261-2.294
		c0.06-2.564,0.016-5.132,0.016-7.698C412.864,671.39,412.885,671.39,412.906,671.39z"/>
	<path fill-rule="evenodd" clip-rule="evenodd" fill="#605F5F" d="M377.773,669.309c0-2.434-0.029-4.867,0.015-7.3
		c0.019-1.076-0.313-2.479,1.463-2.532c1.427-0.044,2.691,0.519,2.828,2.028c0.151,1.649,0.319,2.846,2.271,3.419
		c0.884,0.259,0.276,1.667-0.443,2.049c-2.59,1.377-1.646,3.752-1.603,5.725c0.043,1.907-1.224,4.409,1.835,5.461
		c0.959,0.33,0.722,1.441,0.526,2.264c-0.208,0.874-0.993,0.884-1.707,0.957c-3.829,0.394-5.1-0.773-5.185-4.77
		c-0.003-0.144,0-0.286,0-0.43C377.773,673.89,377.773,671.6,377.773,669.309z"/>
	<path fill-rule="evenodd" clip-rule="evenodd" fill="#605F5F" d="M309.276,670.173c0-2.869-0.002-5.738,0.001-8.606
		c0.001-1.065,0.119-2.056,1.526-2.093c1.222-0.031,2.334,0.242,2.79,1.52c0.234,0.657,0.296,1.403,0.299,2.109
		c0.025,5.165-0.005,10.329,0.027,15.494c0.011,1.588-0.129,2.765-2.236,2.803c-2.365,0.043-2.469-1.301-2.43-3.05
		c0.061-2.724,0.016-5.45,0.016-8.177C309.271,670.173,309.274,670.173,309.276,670.173z"/>
	<path fill-rule="evenodd" clip-rule="evenodd" fill="#605F5F" d="M248.511,670.29c0-2.863-0.016-5.726,0.008-8.589
		c0.009-0.981-0.113-2.115,1.349-2.225c1.23-0.092,2.278,0.272,2.876,1.429c0.189,0.365,0.292,0.818,0.293,1.231
		c0.019,5.869,0.02,11.738,0.01,17.606c-0.002,1.36-0.941,1.6-2.037,1.608c-1.182,0.01-2.435,0.033-2.459-1.614
		c-0.047-3.148-0.014-6.298-0.014-9.447C248.529,670.29,248.52,670.29,248.511,670.29z"/>
	<path fill-rule="evenodd" clip-rule="evenodd" fill="#605F5F" d="M255.774,670.021c0-2.715-0.021-5.429,0.012-8.143
		c0.012-0.95-0.228-2.169,1.182-2.357c1.368-0.183,2.742,0.16,3.015,1.697c0.296,1.67,0.126,3.357,2.455,3.769
		c0.488,0.087,0.29,1.525-0.306,1.815c-2.786,1.355-1.975,3.851-1.91,5.987c0.059,1.927-1.098,4.393,1.943,5.423
		c0.871,0.295,0.652,1.475,0.402,2.299c-0.263,0.864-1.058,0.865-1.759,0.857c-3.047-0.033-5.327-0.219-5.06-4.492
		C255.891,674.601,255.774,672.308,255.774,670.021z"/>
	<path fill-rule="evenodd" clip-rule="evenodd" fill="#605F5F" d="M281.708,675.535c0-1.428-0.167-2.879,0.032-4.278
		c0.555-3.9,3.368-6.472,7.195-6.731c0.813-0.055,1.937-0.283,2.039,0.888c0.1,1.155,0.896,3.112-0.744,3.331
		c-4.661,0.622-4.146,3.902-4.143,7.05c0.001,1.143-0.038,2.288,0.002,3.43c0.048,1.368-0.404,2.169-1.935,2.142
		c-1.386-0.025-2.626-0.076-2.559-1.971c0.046-1.285,0.009-2.572,0.009-3.859C281.64,675.535,281.674,675.535,281.708,675.535z"/>
	<path fill-rule="evenodd" clip-rule="evenodd" fill="#605F5F" d="M455.552,670.155c0.002,2.999-0.045,5.999,0.021,8.996
		c0.036,1.688-0.737,2.224-2.328,2.226c-1.704,0.002-2.203-0.789-2.188-2.369c0.05-5.426,0.006-10.853,0.038-16.278
		c0.005-0.692,0.076-1.489,0.421-2.052c0.655-1.067,1.776-1.376,2.993-1.126c1.152,0.236,1.021,1.224,1.029,2.036
		C455.569,664.443,455.55,667.3,455.552,670.155z"/>
	<path fill-rule="evenodd" clip-rule="evenodd" fill="#FFFFFF" d="M147.128,514.548c6.598,0,13.198-0.113,19.793,0.036
		c5.505,0.124,10.354,2.065,14.232,6.113c0.495,0.517,1.02,1.027,1.407,1.621c4.784,7.34,4.811,15.203,1.887,23.06
		c-2.682,7.206-9.051,9.521-16.003,10.542c-2.119,0.311-4.292,0.356-6.44,0.362c-11.62,0.034-23.241,0.029-34.861,0.013
		c-3.657-0.006-3.684-0.043-3.688-3.824c-0.014-11.333-0.006-22.666-0.004-34c0-3.92-0.561-4.091,3.879-4.07
		c6.599,0.03,13.199,0.008,19.797,0.008C147.127,514.455,147.127,514.502,147.128,514.548z"/>
	<path fill-rule="evenodd" clip-rule="evenodd" fill="#FFFFFF" d="M439.151,668.899c-3.884-0.015-4.604-0.832-3.97-3.945
		c0.055-0.271,0.046-0.64,0.218-0.791c1.718-1.507,3.759-0.597,5.657-0.653c1.22-0.036,2.127,0.631,2.406,1.955
		c0.369,1.754-0.436,3.014-2.276,3.325C440.356,668.931,439.494,668.884,439.151,668.899z"/>
	<path fill-rule="evenodd" clip-rule="evenodd" fill="#FFFFFF" d="M118.313,670.771c0.295-2.087,1.428-3.013,3.437-2.842
		c1.255,0.107,2.25,0.777,2.261,2.096c0.013,1.58-1.366,1.075-2.239,1.123C120.677,671.209,119.539,671.334,118.313,670.771z"/>
	<path fill-rule="evenodd" clip-rule="evenodd" fill="#FFFFFF" d="M353.346,670.995c-2.048,0.231-3.844,0.35-5.696-0.08
		c-0.114-1.91,0.81-2.827,2.444-2.983C351.892,667.761,353.127,668.477,353.346,670.995z"/>
	<path fill-rule="evenodd" clip-rule="evenodd" fill="#FFFFFF" d="M302.848,674.303c-0.14,2.331-1.995,3.997-3.938,3.754
		c-1.113-0.139-1.809-0.748-1.838-1.908c-0.037-1.449,2.138-2.789,4.567-2.86C302.518,673.263,302.908,673.687,302.848,674.303z"/>
	<path fill-rule="evenodd" clip-rule="evenodd" fill="#FFFFFF" d="M194.003,673.307c-0.161,0.766-0.232,1.789-0.601,2.69
		c-0.453,1.106-1.417,1.893-2.632,1.895c-1.367,0.002-2.528-0.691-2.93-2.076c-0.475-1.638-0.797-3.304-0.32-5.048
		c0.465-1.7,1.341-2.89,3.21-2.826c1.854,0.063,2.742,1.316,3.062,3.012C193.923,671.648,193.923,672.367,194.003,673.307z"/>
	<path fill-rule="evenodd" clip-rule="evenodd" fill="#FFFFFF" d="M406.278,672.189c0.07,3.445-1.269,5.597-3.265,5.698
		c-2.104,0.107-3.431-1.787-3.464-4.997c-0.008-0.71-0.013-1.448,0.163-2.125c0.43-1.648,1.345-2.845,3.247-2.833
		c1.723,0.011,2.511,1.185,3.012,2.592C406.205,671.183,406.231,671.915,406.278,672.189z"/>
</g>
</svg>
